<?xml version="1.0" encoding="iso-8859-1"?>
<!-- Uploaded to: SVG Repo, www.svgrepo.com, Generator: SVG Repo Mixer Tools -->
<svg fill="#000000" height="800px" width="800px" version="1.1" id="Capa_1" xmlns="http://www.w3.org/2000/svg" xmlns:xlink="http://www.w3.org/1999/xlink" 
	 viewBox="0 0 489.2 489.2" xml:space="preserve">
<g>
	<g>
		<g>
			<path d="M173.9,298.2c0.8,19.8,3.9,38.4,8.5,55.1h52.4v-55.1H173.9z"/>
			<path d="M254.3,373.1v52c18.2-5,34.6-24.5,45.8-52H254.3z"/>
			<path d="M254.3,152.2v52h45.8C288.9,176.7,272.6,157.2,254.3,152.2z"/>
			<path d="M254.3,298.2v55.1h52.4c4.7-16.7,7.8-35.3,8.5-55.1H254.3z"/>
			<path d="M254.3,278.8h61c-0.8-19.8-3.9-38.4-8.5-55.1h-52.4v55.1H254.3z"/>
			<path d="M234.9,425.1v-52h-45.8C200.3,400.3,216.6,419.7,234.9,425.1z"/>
			<path d="M334.7,298.2c-0.8,19.8-3.5,38.4-7.8,55.1h39.2c8.9-16.7,14.4-35.3,15.9-55.1H334.7z"/>
			<path d="M154.5,278.8c0.8-19.8,3.5-38.4,7.8-55.1h-39.2c-8.9,16.7-14.4,35.3-15.9,55.1H154.5z"/>
			<path d="M489.2,0H0v68.7h489.2V0z M333.5,43.9H30.7c-5.4,0-9.7-4.3-9.7-9.7s4.3-9.7,9.7-9.7h302.9c5.4,0,9.7,4.3,9.7,9.7
				S339,43.9,333.5,43.9z M395.6,43.9h-19c-5.4,0-9.7-4.3-9.7-9.7s4.3-9.7,9.7-9.7h19c5.4,0,9.7,4.3,9.7,9.7S401.1,43.9,395.6,43.9z
				 M458.5,43.9h-19c-5.4,0-9.7-4.3-9.7-9.7s4.3-9.7,9.7-9.7h19c5.4,0,9.7,4.3,9.7,9.7S464,43.9,458.5,43.9z"/>
			<path d="M334.7,278.8h47.4c-1.6-19.8-7-38.4-15.9-55.1H327C331.2,240.7,333.9,259.4,334.7,278.8z"/>
			<path d="M234.9,204.2v-52c-18.2,5-34.6,24.5-45.8,52H234.9z"/>
			<path d="M0,489.2h489.2V88.1H0V489.2z M244.6,131.2c86.6,0,157.3,70.7,157.3,157.3s-70.7,157.2-157.3,157.2
				S87.3,375.1,87.3,288.5S158,131.2,244.6,131.2z"/>
			<path d="M168.1,204.2c5.8-16.7,13.6-31.1,22.5-42.3c-21.7,9.3-40.8,24.1-55.1,42.3H168.1z"/>
			<path d="M321.1,204.2h32.2c-14.4-18.6-33.4-33.4-55.1-42.3C307.5,173.2,315.3,187.9,321.1,204.2z"/>
			<path d="M234.9,278.8v-55.2h-52.4c-4.7,16.7-7.8,35.3-8.5,55.1L234.9,278.8z"/>
			<path d="M168.1,373.1h-32.2c14.4,18.6,33.4,33.4,55.1,42.3C181.7,403.8,173.9,389.4,168.1,373.1z"/>
			<path d="M162.3,353.7c-4.3-17.1-7-35.3-7.8-55.1h-47.4c1.6,19.8,7,38.4,15.9,55.1H162.3z"/>
			<path d="M321.1,373.1c-5.8,16.7-13.6,31.1-22.5,42.3c21.7-9.3,40.8-24.1,55.1-42.3H321.1z"/>
		</g>
	</g>
</g>
</svg>